%TF.GenerationSoftware,KiCad,Pcbnew,6.0.2+dfsg-1*%
%TF.CreationDate,2023-03-19T16:54:37+01:00*%
%TF.ProjectId,recruitment,72656372-7569-4746-9d65-6e742e6b6963,rev?*%
%TF.SameCoordinates,Original*%
%TF.FileFunction,Soldermask,Top*%
%TF.FilePolarity,Negative*%
%FSLAX46Y46*%
G04 Gerber Fmt 4.6, Leading zero omitted, Abs format (unit mm)*
G04 Created by KiCad (PCBNEW 6.0.2+dfsg-1) date 2023-03-19 16:54:37*
%MOMM*%
%LPD*%
G01*
G04 APERTURE LIST*
G04 Aperture macros list*
%AMRoundRect*
0 Rectangle with rounded corners*
0 $1 Rounding radius*
0 $2 $3 $4 $5 $6 $7 $8 $9 X,Y pos of 4 corners*
0 Add a 4 corners polygon primitive as box body*
4,1,4,$2,$3,$4,$5,$6,$7,$8,$9,$2,$3,0*
0 Add four circle primitives for the rounded corners*
1,1,$1+$1,$2,$3*
1,1,$1+$1,$4,$5*
1,1,$1+$1,$6,$7*
1,1,$1+$1,$8,$9*
0 Add four rect primitives between the rounded corners*
20,1,$1+$1,$2,$3,$4,$5,0*
20,1,$1+$1,$4,$5,$6,$7,0*
20,1,$1+$1,$6,$7,$8,$9,0*
20,1,$1+$1,$8,$9,$2,$3,0*%
G04 Aperture macros list end*
%ADD10RoundRect,0.250001X-1.262499X-1.974999X1.262499X-1.974999X1.262499X1.974999X-1.262499X1.974999X0*%
%ADD11R,1.350000X1.350000*%
%ADD12O,1.350000X1.350000*%
%ADD13RoundRect,0.150000X-0.587500X-0.150000X0.587500X-0.150000X0.587500X0.150000X-0.587500X0.150000X0*%
%ADD14R,1.600000X0.500000*%
%ADD15R,0.600000X0.900000*%
%ADD16R,1.700000X1.800000*%
%ADD17R,1.524000X1.524000*%
%ADD18C,1.524000*%
%ADD19R,2.000000X1.905000*%
%ADD20O,2.000000X1.905000*%
%ADD21R,1.409700X0.355600*%
%ADD22R,1.120000X2.160000*%
%ADD23R,2.500000X2.500000*%
%ADD24O,2.500000X2.500000*%
G04 APERTURE END LIST*
D10*
%TO.C,Rload2*%
X144835000Y-88900000D03*
X149860000Y-88900000D03*
%TD*%
%TO.C,Rhall2*%
X134647500Y-88900000D03*
X139672500Y-88900000D03*
%TD*%
D11*
%TO.C,LoadConnect1*%
X154940000Y-83820000D03*
D12*
X154940000Y-85820000D03*
%TD*%
D13*
%TO.C,Q1*%
X123522500Y-93030000D03*
X123522500Y-94930000D03*
X125397500Y-93980000D03*
%TD*%
D11*
%TO.C,SupplyConnect1*%
X111760000Y-109220000D03*
D12*
X111760000Y-107220000D03*
X111760000Y-105220000D03*
%TD*%
D10*
%TO.C,Rref2*%
X139727500Y-109220000D03*
X144752500Y-109220000D03*
%TD*%
D14*
%TO.C,HallSensor1*%
X124550000Y-79680000D03*
X124550000Y-81280000D03*
X124550000Y-82880000D03*
D15*
X127050000Y-84080000D03*
D16*
X129400000Y-82780000D03*
X129400000Y-79780000D03*
D15*
X127050000Y-78480000D03*
%TD*%
D17*
%TO.C,multiplier1*%
X146050000Y-95250000D03*
D18*
X146050000Y-97790000D03*
X146050000Y-100330000D03*
X146050000Y-102870000D03*
X153670000Y-102870000D03*
X153670000Y-100330000D03*
X153670000Y-97790000D03*
X153670000Y-95250000D03*
%TD*%
D19*
%TO.C,regolator1*%
X121920000Y-106181300D03*
D20*
X121920000Y-108721300D03*
X121920000Y-111261300D03*
%TD*%
D10*
%TO.C,Rref1*%
X129567500Y-109220000D03*
X134592500Y-109220000D03*
%TD*%
%TO.C,Rhall1*%
X134647500Y-81280000D03*
X139672500Y-81280000D03*
%TD*%
D21*
%TO.C,flipflop1*%
X149447250Y-107269999D03*
X149447250Y-107920000D03*
X149447250Y-108570001D03*
X149447250Y-109220000D03*
X149447250Y-109869999D03*
X149447250Y-110520000D03*
X149447250Y-111169999D03*
X155352750Y-111170001D03*
X155352750Y-110520000D03*
X155352750Y-109870001D03*
X155352750Y-109220000D03*
X155352750Y-108570001D03*
X155352750Y-107920000D03*
X155352750Y-107270001D03*
%TD*%
D10*
%TO.C,Rload1*%
X144780000Y-81280000D03*
X149805000Y-81280000D03*
%TD*%
D22*
%TO.C,SW1*%
X116840000Y-112585000D03*
X116840000Y-105855000D03*
%TD*%
D17*
%TO.C,Comparator1*%
X133350000Y-95419500D03*
D18*
X133350000Y-97959500D03*
X133350000Y-100499500D03*
X133350000Y-103039500D03*
X140970000Y-103039500D03*
X140970000Y-100499500D03*
X140970000Y-97959500D03*
X140970000Y-95419500D03*
%TD*%
D10*
%TO.C,Rrelay2*%
X124460000Y-88900000D03*
X129485000Y-88900000D03*
%TD*%
%TO.C,Rrelay1*%
X124487500Y-99060000D03*
X129512500Y-99060000D03*
%TD*%
D23*
%TO.C,Relay1*%
X113182500Y-99307500D03*
D24*
X113182500Y-78307500D03*
X120682500Y-81807500D03*
X120682500Y-99307500D03*
%TD*%
M02*
