%TF.GenerationSoftware,KiCad,Pcbnew,6.0.2+dfsg-1*%
%TF.CreationDate,2023-03-19T16:54:37+01:00*%
%TF.ProjectId,recruitment,72656372-7569-4746-9d65-6e742e6b6963,rev?*%
%TF.SameCoordinates,Original*%
%TF.FileFunction,Legend,Top*%
%TF.FilePolarity,Positive*%
%FSLAX46Y46*%
G04 Gerber Fmt 4.6, Leading zero omitted, Abs format (unit mm)*
G04 Created by KiCad (PCBNEW 6.0.2+dfsg-1) date 2023-03-19 16:54:37*
%MOMM*%
%LPD*%
G01*
G04 APERTURE LIST*
%ADD10C,0.150000*%
%ADD11C,0.120000*%
%ADD12C,0.100000*%
G04 APERTURE END LIST*
D10*
%TO.C,Rload2*%
X145561785Y-86172380D02*
X145228452Y-85696190D01*
X144990357Y-86172380D02*
X144990357Y-85172380D01*
X145371309Y-85172380D01*
X145466547Y-85220000D01*
X145514166Y-85267619D01*
X145561785Y-85362857D01*
X145561785Y-85505714D01*
X145514166Y-85600952D01*
X145466547Y-85648571D01*
X145371309Y-85696190D01*
X144990357Y-85696190D01*
X146133214Y-86172380D02*
X146037976Y-86124761D01*
X145990357Y-86029523D01*
X145990357Y-85172380D01*
X146657023Y-86172380D02*
X146561785Y-86124761D01*
X146514166Y-86077142D01*
X146466547Y-85981904D01*
X146466547Y-85696190D01*
X146514166Y-85600952D01*
X146561785Y-85553333D01*
X146657023Y-85505714D01*
X146799880Y-85505714D01*
X146895119Y-85553333D01*
X146942738Y-85600952D01*
X146990357Y-85696190D01*
X146990357Y-85981904D01*
X146942738Y-86077142D01*
X146895119Y-86124761D01*
X146799880Y-86172380D01*
X146657023Y-86172380D01*
X147847500Y-86172380D02*
X147847500Y-85648571D01*
X147799880Y-85553333D01*
X147704642Y-85505714D01*
X147514166Y-85505714D01*
X147418928Y-85553333D01*
X147847500Y-86124761D02*
X147752261Y-86172380D01*
X147514166Y-86172380D01*
X147418928Y-86124761D01*
X147371309Y-86029523D01*
X147371309Y-85934285D01*
X147418928Y-85839047D01*
X147514166Y-85791428D01*
X147752261Y-85791428D01*
X147847500Y-85743809D01*
X148752261Y-86172380D02*
X148752261Y-85172380D01*
X148752261Y-86124761D02*
X148657023Y-86172380D01*
X148466547Y-86172380D01*
X148371309Y-86124761D01*
X148323690Y-86077142D01*
X148276071Y-85981904D01*
X148276071Y-85696190D01*
X148323690Y-85600952D01*
X148371309Y-85553333D01*
X148466547Y-85505714D01*
X148657023Y-85505714D01*
X148752261Y-85553333D01*
X149180833Y-85267619D02*
X149228452Y-85220000D01*
X149323690Y-85172380D01*
X149561785Y-85172380D01*
X149657023Y-85220000D01*
X149704642Y-85267619D01*
X149752261Y-85362857D01*
X149752261Y-85458095D01*
X149704642Y-85600952D01*
X149133214Y-86172380D01*
X149752261Y-86172380D01*
%TO.C,Rhall2*%
X135564761Y-86172380D02*
X135231428Y-85696190D01*
X134993333Y-86172380D02*
X134993333Y-85172380D01*
X135374285Y-85172380D01*
X135469523Y-85220000D01*
X135517142Y-85267619D01*
X135564761Y-85362857D01*
X135564761Y-85505714D01*
X135517142Y-85600952D01*
X135469523Y-85648571D01*
X135374285Y-85696190D01*
X134993333Y-85696190D01*
X135993333Y-86172380D02*
X135993333Y-85172380D01*
X136421904Y-86172380D02*
X136421904Y-85648571D01*
X136374285Y-85553333D01*
X136279047Y-85505714D01*
X136136190Y-85505714D01*
X136040952Y-85553333D01*
X135993333Y-85600952D01*
X137326666Y-86172380D02*
X137326666Y-85648571D01*
X137279047Y-85553333D01*
X137183809Y-85505714D01*
X136993333Y-85505714D01*
X136898095Y-85553333D01*
X137326666Y-86124761D02*
X137231428Y-86172380D01*
X136993333Y-86172380D01*
X136898095Y-86124761D01*
X136850476Y-86029523D01*
X136850476Y-85934285D01*
X136898095Y-85839047D01*
X136993333Y-85791428D01*
X137231428Y-85791428D01*
X137326666Y-85743809D01*
X137945714Y-86172380D02*
X137850476Y-86124761D01*
X137802857Y-86029523D01*
X137802857Y-85172380D01*
X138469523Y-86172380D02*
X138374285Y-86124761D01*
X138326666Y-86029523D01*
X138326666Y-85172380D01*
X138802857Y-85267619D02*
X138850476Y-85220000D01*
X138945714Y-85172380D01*
X139183809Y-85172380D01*
X139279047Y-85220000D01*
X139326666Y-85267619D01*
X139374285Y-85362857D01*
X139374285Y-85458095D01*
X139326666Y-85600952D01*
X138755238Y-86172380D01*
X139374285Y-86172380D01*
%TO.C,LoadConnect1*%
X150416190Y-82212380D02*
X149940000Y-82212380D01*
X149940000Y-81212380D01*
X150892380Y-82212380D02*
X150797142Y-82164761D01*
X150749523Y-82117142D01*
X150701904Y-82021904D01*
X150701904Y-81736190D01*
X150749523Y-81640952D01*
X150797142Y-81593333D01*
X150892380Y-81545714D01*
X151035238Y-81545714D01*
X151130476Y-81593333D01*
X151178095Y-81640952D01*
X151225714Y-81736190D01*
X151225714Y-82021904D01*
X151178095Y-82117142D01*
X151130476Y-82164761D01*
X151035238Y-82212380D01*
X150892380Y-82212380D01*
X152082857Y-82212380D02*
X152082857Y-81688571D01*
X152035238Y-81593333D01*
X151940000Y-81545714D01*
X151749523Y-81545714D01*
X151654285Y-81593333D01*
X152082857Y-82164761D02*
X151987619Y-82212380D01*
X151749523Y-82212380D01*
X151654285Y-82164761D01*
X151606666Y-82069523D01*
X151606666Y-81974285D01*
X151654285Y-81879047D01*
X151749523Y-81831428D01*
X151987619Y-81831428D01*
X152082857Y-81783809D01*
X152987619Y-82212380D02*
X152987619Y-81212380D01*
X152987619Y-82164761D02*
X152892380Y-82212380D01*
X152701904Y-82212380D01*
X152606666Y-82164761D01*
X152559047Y-82117142D01*
X152511428Y-82021904D01*
X152511428Y-81736190D01*
X152559047Y-81640952D01*
X152606666Y-81593333D01*
X152701904Y-81545714D01*
X152892380Y-81545714D01*
X152987619Y-81593333D01*
X154035238Y-82117142D02*
X153987619Y-82164761D01*
X153844761Y-82212380D01*
X153749523Y-82212380D01*
X153606666Y-82164761D01*
X153511428Y-82069523D01*
X153463809Y-81974285D01*
X153416190Y-81783809D01*
X153416190Y-81640952D01*
X153463809Y-81450476D01*
X153511428Y-81355238D01*
X153606666Y-81260000D01*
X153749523Y-81212380D01*
X153844761Y-81212380D01*
X153987619Y-81260000D01*
X154035238Y-81307619D01*
X154606666Y-82212380D02*
X154511428Y-82164761D01*
X154463809Y-82117142D01*
X154416190Y-82021904D01*
X154416190Y-81736190D01*
X154463809Y-81640952D01*
X154511428Y-81593333D01*
X154606666Y-81545714D01*
X154749523Y-81545714D01*
X154844761Y-81593333D01*
X154892380Y-81640952D01*
X154940000Y-81736190D01*
X154940000Y-82021904D01*
X154892380Y-82117142D01*
X154844761Y-82164761D01*
X154749523Y-82212380D01*
X154606666Y-82212380D01*
X155368571Y-81545714D02*
X155368571Y-82212380D01*
X155368571Y-81640952D02*
X155416190Y-81593333D01*
X155511428Y-81545714D01*
X155654285Y-81545714D01*
X155749523Y-81593333D01*
X155797142Y-81688571D01*
X155797142Y-82212380D01*
X156273333Y-81545714D02*
X156273333Y-82212380D01*
X156273333Y-81640952D02*
X156320952Y-81593333D01*
X156416190Y-81545714D01*
X156559047Y-81545714D01*
X156654285Y-81593333D01*
X156701904Y-81688571D01*
X156701904Y-82212380D01*
X157559047Y-82164761D02*
X157463809Y-82212380D01*
X157273333Y-82212380D01*
X157178095Y-82164761D01*
X157130476Y-82069523D01*
X157130476Y-81688571D01*
X157178095Y-81593333D01*
X157273333Y-81545714D01*
X157463809Y-81545714D01*
X157559047Y-81593333D01*
X157606666Y-81688571D01*
X157606666Y-81783809D01*
X157130476Y-81879047D01*
X158463809Y-82164761D02*
X158368571Y-82212380D01*
X158178095Y-82212380D01*
X158082857Y-82164761D01*
X158035238Y-82117142D01*
X157987619Y-82021904D01*
X157987619Y-81736190D01*
X158035238Y-81640952D01*
X158082857Y-81593333D01*
X158178095Y-81545714D01*
X158368571Y-81545714D01*
X158463809Y-81593333D01*
X158749523Y-81545714D02*
X159130476Y-81545714D01*
X158892380Y-81212380D02*
X158892380Y-82069523D01*
X158940000Y-82164761D01*
X159035238Y-82212380D01*
X159130476Y-82212380D01*
X159987619Y-82212380D02*
X159416190Y-82212380D01*
X159701904Y-82212380D02*
X159701904Y-81212380D01*
X159606666Y-81355238D01*
X159511428Y-81450476D01*
X159416190Y-81498095D01*
%TO.C,Q1*%
X124364761Y-92127619D02*
X124269523Y-92080000D01*
X124174285Y-91984761D01*
X124031428Y-91841904D01*
X123936190Y-91794285D01*
X123840952Y-91794285D01*
X123888571Y-92032380D02*
X123793333Y-91984761D01*
X123698095Y-91889523D01*
X123650476Y-91699047D01*
X123650476Y-91365714D01*
X123698095Y-91175238D01*
X123793333Y-91080000D01*
X123888571Y-91032380D01*
X124079047Y-91032380D01*
X124174285Y-91080000D01*
X124269523Y-91175238D01*
X124317142Y-91365714D01*
X124317142Y-91699047D01*
X124269523Y-91889523D01*
X124174285Y-91984761D01*
X124079047Y-92032380D01*
X123888571Y-92032380D01*
X125269523Y-92032380D02*
X124698095Y-92032380D01*
X124983809Y-92032380D02*
X124983809Y-91032380D01*
X124888571Y-91175238D01*
X124793333Y-91270476D01*
X124698095Y-91318095D01*
%TO.C,SupplyConnect1*%
X105998095Y-111684761D02*
X106140952Y-111732380D01*
X106379047Y-111732380D01*
X106474285Y-111684761D01*
X106521904Y-111637142D01*
X106569523Y-111541904D01*
X106569523Y-111446666D01*
X106521904Y-111351428D01*
X106474285Y-111303809D01*
X106379047Y-111256190D01*
X106188571Y-111208571D01*
X106093333Y-111160952D01*
X106045714Y-111113333D01*
X105998095Y-111018095D01*
X105998095Y-110922857D01*
X106045714Y-110827619D01*
X106093333Y-110780000D01*
X106188571Y-110732380D01*
X106426666Y-110732380D01*
X106569523Y-110780000D01*
X107426666Y-111065714D02*
X107426666Y-111732380D01*
X106998095Y-111065714D02*
X106998095Y-111589523D01*
X107045714Y-111684761D01*
X107140952Y-111732380D01*
X107283809Y-111732380D01*
X107379047Y-111684761D01*
X107426666Y-111637142D01*
X107902857Y-111065714D02*
X107902857Y-112065714D01*
X107902857Y-111113333D02*
X107998095Y-111065714D01*
X108188571Y-111065714D01*
X108283809Y-111113333D01*
X108331428Y-111160952D01*
X108379047Y-111256190D01*
X108379047Y-111541904D01*
X108331428Y-111637142D01*
X108283809Y-111684761D01*
X108188571Y-111732380D01*
X107998095Y-111732380D01*
X107902857Y-111684761D01*
X108807619Y-111065714D02*
X108807619Y-112065714D01*
X108807619Y-111113333D02*
X108902857Y-111065714D01*
X109093333Y-111065714D01*
X109188571Y-111113333D01*
X109236190Y-111160952D01*
X109283809Y-111256190D01*
X109283809Y-111541904D01*
X109236190Y-111637142D01*
X109188571Y-111684761D01*
X109093333Y-111732380D01*
X108902857Y-111732380D01*
X108807619Y-111684761D01*
X109855238Y-111732380D02*
X109760000Y-111684761D01*
X109712380Y-111589523D01*
X109712380Y-110732380D01*
X110140952Y-111065714D02*
X110379047Y-111732380D01*
X110617142Y-111065714D02*
X110379047Y-111732380D01*
X110283809Y-111970476D01*
X110236190Y-112018095D01*
X110140952Y-112065714D01*
X111569523Y-111637142D02*
X111521904Y-111684761D01*
X111379047Y-111732380D01*
X111283809Y-111732380D01*
X111140952Y-111684761D01*
X111045714Y-111589523D01*
X110998095Y-111494285D01*
X110950476Y-111303809D01*
X110950476Y-111160952D01*
X110998095Y-110970476D01*
X111045714Y-110875238D01*
X111140952Y-110780000D01*
X111283809Y-110732380D01*
X111379047Y-110732380D01*
X111521904Y-110780000D01*
X111569523Y-110827619D01*
X112140952Y-111732380D02*
X112045714Y-111684761D01*
X111998095Y-111637142D01*
X111950476Y-111541904D01*
X111950476Y-111256190D01*
X111998095Y-111160952D01*
X112045714Y-111113333D01*
X112140952Y-111065714D01*
X112283809Y-111065714D01*
X112379047Y-111113333D01*
X112426666Y-111160952D01*
X112474285Y-111256190D01*
X112474285Y-111541904D01*
X112426666Y-111637142D01*
X112379047Y-111684761D01*
X112283809Y-111732380D01*
X112140952Y-111732380D01*
X112902857Y-111065714D02*
X112902857Y-111732380D01*
X112902857Y-111160952D02*
X112950476Y-111113333D01*
X113045714Y-111065714D01*
X113188571Y-111065714D01*
X113283809Y-111113333D01*
X113331428Y-111208571D01*
X113331428Y-111732380D01*
X113807619Y-111065714D02*
X113807619Y-111732380D01*
X113807619Y-111160952D02*
X113855238Y-111113333D01*
X113950476Y-111065714D01*
X114093333Y-111065714D01*
X114188571Y-111113333D01*
X114236190Y-111208571D01*
X114236190Y-111732380D01*
X115093333Y-111684761D02*
X114998095Y-111732380D01*
X114807619Y-111732380D01*
X114712380Y-111684761D01*
X114664761Y-111589523D01*
X114664761Y-111208571D01*
X114712380Y-111113333D01*
X114807619Y-111065714D01*
X114998095Y-111065714D01*
X115093333Y-111113333D01*
X115140952Y-111208571D01*
X115140952Y-111303809D01*
X114664761Y-111399047D01*
X115998095Y-111684761D02*
X115902857Y-111732380D01*
X115712380Y-111732380D01*
X115617142Y-111684761D01*
X115569523Y-111637142D01*
X115521904Y-111541904D01*
X115521904Y-111256190D01*
X115569523Y-111160952D01*
X115617142Y-111113333D01*
X115712380Y-111065714D01*
X115902857Y-111065714D01*
X115998095Y-111113333D01*
X116283809Y-111065714D02*
X116664761Y-111065714D01*
X116426666Y-110732380D02*
X116426666Y-111589523D01*
X116474285Y-111684761D01*
X116569523Y-111732380D01*
X116664761Y-111732380D01*
X117521904Y-111732380D02*
X116950476Y-111732380D01*
X117236190Y-111732380D02*
X117236190Y-110732380D01*
X117140952Y-110875238D01*
X117045714Y-110970476D01*
X116950476Y-111018095D01*
%TO.C,Rref2*%
X141049523Y-106492380D02*
X140716190Y-106016190D01*
X140478095Y-106492380D02*
X140478095Y-105492380D01*
X140859047Y-105492380D01*
X140954285Y-105540000D01*
X141001904Y-105587619D01*
X141049523Y-105682857D01*
X141049523Y-105825714D01*
X141001904Y-105920952D01*
X140954285Y-105968571D01*
X140859047Y-106016190D01*
X140478095Y-106016190D01*
X141478095Y-106492380D02*
X141478095Y-105825714D01*
X141478095Y-106016190D02*
X141525714Y-105920952D01*
X141573333Y-105873333D01*
X141668571Y-105825714D01*
X141763809Y-105825714D01*
X142478095Y-106444761D02*
X142382857Y-106492380D01*
X142192380Y-106492380D01*
X142097142Y-106444761D01*
X142049523Y-106349523D01*
X142049523Y-105968571D01*
X142097142Y-105873333D01*
X142192380Y-105825714D01*
X142382857Y-105825714D01*
X142478095Y-105873333D01*
X142525714Y-105968571D01*
X142525714Y-106063809D01*
X142049523Y-106159047D01*
X142811428Y-105825714D02*
X143192380Y-105825714D01*
X142954285Y-106492380D02*
X142954285Y-105635238D01*
X143001904Y-105540000D01*
X143097142Y-105492380D01*
X143192380Y-105492380D01*
X143478095Y-105587619D02*
X143525714Y-105540000D01*
X143620952Y-105492380D01*
X143859047Y-105492380D01*
X143954285Y-105540000D01*
X144001904Y-105587619D01*
X144049523Y-105682857D01*
X144049523Y-105778095D01*
X144001904Y-105920952D01*
X143430476Y-106492380D01*
X144049523Y-106492380D01*
%TO.C,HallSensor1*%
X122738095Y-77532380D02*
X122738095Y-76532380D01*
X122738095Y-77008571D02*
X123309523Y-77008571D01*
X123309523Y-77532380D02*
X123309523Y-76532380D01*
X124214285Y-77532380D02*
X124214285Y-77008571D01*
X124166666Y-76913333D01*
X124071428Y-76865714D01*
X123880952Y-76865714D01*
X123785714Y-76913333D01*
X124214285Y-77484761D02*
X124119047Y-77532380D01*
X123880952Y-77532380D01*
X123785714Y-77484761D01*
X123738095Y-77389523D01*
X123738095Y-77294285D01*
X123785714Y-77199047D01*
X123880952Y-77151428D01*
X124119047Y-77151428D01*
X124214285Y-77103809D01*
X124833333Y-77532380D02*
X124738095Y-77484761D01*
X124690476Y-77389523D01*
X124690476Y-76532380D01*
X125357142Y-77532380D02*
X125261904Y-77484761D01*
X125214285Y-77389523D01*
X125214285Y-76532380D01*
X125690476Y-77484761D02*
X125833333Y-77532380D01*
X126071428Y-77532380D01*
X126166666Y-77484761D01*
X126214285Y-77437142D01*
X126261904Y-77341904D01*
X126261904Y-77246666D01*
X126214285Y-77151428D01*
X126166666Y-77103809D01*
X126071428Y-77056190D01*
X125880952Y-77008571D01*
X125785714Y-76960952D01*
X125738095Y-76913333D01*
X125690476Y-76818095D01*
X125690476Y-76722857D01*
X125738095Y-76627619D01*
X125785714Y-76580000D01*
X125880952Y-76532380D01*
X126119047Y-76532380D01*
X126261904Y-76580000D01*
X127071428Y-77484761D02*
X126976190Y-77532380D01*
X126785714Y-77532380D01*
X126690476Y-77484761D01*
X126642857Y-77389523D01*
X126642857Y-77008571D01*
X126690476Y-76913333D01*
X126785714Y-76865714D01*
X126976190Y-76865714D01*
X127071428Y-76913333D01*
X127119047Y-77008571D01*
X127119047Y-77103809D01*
X126642857Y-77199047D01*
X127547619Y-76865714D02*
X127547619Y-77532380D01*
X127547619Y-76960952D02*
X127595238Y-76913333D01*
X127690476Y-76865714D01*
X127833333Y-76865714D01*
X127928571Y-76913333D01*
X127976190Y-77008571D01*
X127976190Y-77532380D01*
X128404761Y-77484761D02*
X128500000Y-77532380D01*
X128690476Y-77532380D01*
X128785714Y-77484761D01*
X128833333Y-77389523D01*
X128833333Y-77341904D01*
X128785714Y-77246666D01*
X128690476Y-77199047D01*
X128547619Y-77199047D01*
X128452380Y-77151428D01*
X128404761Y-77056190D01*
X128404761Y-77008571D01*
X128452380Y-76913333D01*
X128547619Y-76865714D01*
X128690476Y-76865714D01*
X128785714Y-76913333D01*
X129404761Y-77532380D02*
X129309523Y-77484761D01*
X129261904Y-77437142D01*
X129214285Y-77341904D01*
X129214285Y-77056190D01*
X129261904Y-76960952D01*
X129309523Y-76913333D01*
X129404761Y-76865714D01*
X129547619Y-76865714D01*
X129642857Y-76913333D01*
X129690476Y-76960952D01*
X129738095Y-77056190D01*
X129738095Y-77341904D01*
X129690476Y-77437142D01*
X129642857Y-77484761D01*
X129547619Y-77532380D01*
X129404761Y-77532380D01*
X130166666Y-77532380D02*
X130166666Y-76865714D01*
X130166666Y-77056190D02*
X130214285Y-76960952D01*
X130261904Y-76913333D01*
X130357142Y-76865714D01*
X130452380Y-76865714D01*
X131309523Y-77532380D02*
X130738095Y-77532380D01*
X131023809Y-77532380D02*
X131023809Y-76532380D01*
X130928571Y-76675238D01*
X130833333Y-76770476D01*
X130738095Y-76818095D01*
%TO.C,multiplier1*%
X146026666Y-99512380D02*
X146026666Y-98845714D01*
X146026666Y-98940952D02*
X146074285Y-98893333D01*
X146169523Y-98845714D01*
X146312380Y-98845714D01*
X146407619Y-98893333D01*
X146455238Y-98988571D01*
X146455238Y-99512380D01*
X146455238Y-98988571D02*
X146502857Y-98893333D01*
X146598095Y-98845714D01*
X146740952Y-98845714D01*
X146836190Y-98893333D01*
X146883809Y-98988571D01*
X146883809Y-99512380D01*
X147788571Y-98845714D02*
X147788571Y-99512380D01*
X147360000Y-98845714D02*
X147360000Y-99369523D01*
X147407619Y-99464761D01*
X147502857Y-99512380D01*
X147645714Y-99512380D01*
X147740952Y-99464761D01*
X147788571Y-99417142D01*
X148407619Y-99512380D02*
X148312380Y-99464761D01*
X148264761Y-99369523D01*
X148264761Y-98512380D01*
X148645714Y-98845714D02*
X149026666Y-98845714D01*
X148788571Y-98512380D02*
X148788571Y-99369523D01*
X148836190Y-99464761D01*
X148931428Y-99512380D01*
X149026666Y-99512380D01*
X149360000Y-99512380D02*
X149360000Y-98845714D01*
X149360000Y-98512380D02*
X149312380Y-98560000D01*
X149360000Y-98607619D01*
X149407619Y-98560000D01*
X149360000Y-98512380D01*
X149360000Y-98607619D01*
X149836190Y-98845714D02*
X149836190Y-99845714D01*
X149836190Y-98893333D02*
X149931428Y-98845714D01*
X150121904Y-98845714D01*
X150217142Y-98893333D01*
X150264761Y-98940952D01*
X150312380Y-99036190D01*
X150312380Y-99321904D01*
X150264761Y-99417142D01*
X150217142Y-99464761D01*
X150121904Y-99512380D01*
X149931428Y-99512380D01*
X149836190Y-99464761D01*
X150883809Y-99512380D02*
X150788571Y-99464761D01*
X150740952Y-99369523D01*
X150740952Y-98512380D01*
X151264761Y-99512380D02*
X151264761Y-98845714D01*
X151264761Y-98512380D02*
X151217142Y-98560000D01*
X151264761Y-98607619D01*
X151312380Y-98560000D01*
X151264761Y-98512380D01*
X151264761Y-98607619D01*
X152121904Y-99464761D02*
X152026666Y-99512380D01*
X151836190Y-99512380D01*
X151740952Y-99464761D01*
X151693333Y-99369523D01*
X151693333Y-98988571D01*
X151740952Y-98893333D01*
X151836190Y-98845714D01*
X152026666Y-98845714D01*
X152121904Y-98893333D01*
X152169523Y-98988571D01*
X152169523Y-99083809D01*
X151693333Y-99179047D01*
X152598095Y-99512380D02*
X152598095Y-98845714D01*
X152598095Y-99036190D02*
X152645714Y-98940952D01*
X152693333Y-98893333D01*
X152788571Y-98845714D01*
X152883809Y-98845714D01*
X153740952Y-99512380D02*
X153169523Y-99512380D01*
X153455238Y-99512380D02*
X153455238Y-98512380D01*
X153360000Y-98655238D01*
X153264761Y-98750476D01*
X153169523Y-98798095D01*
X146740952Y-96686666D02*
X147217142Y-96686666D01*
X146645714Y-96972380D02*
X146979047Y-95972380D01*
X147312380Y-96972380D01*
X147645714Y-96972380D02*
X147645714Y-95972380D01*
X147883809Y-95972380D01*
X148026666Y-96020000D01*
X148121904Y-96115238D01*
X148169523Y-96210476D01*
X148217142Y-96400952D01*
X148217142Y-96543809D01*
X148169523Y-96734285D01*
X148121904Y-96829523D01*
X148026666Y-96924761D01*
X147883809Y-96972380D01*
X147645714Y-96972380D01*
X148788571Y-96400952D02*
X148693333Y-96353333D01*
X148645714Y-96305714D01*
X148598095Y-96210476D01*
X148598095Y-96162857D01*
X148645714Y-96067619D01*
X148693333Y-96020000D01*
X148788571Y-95972380D01*
X148979047Y-95972380D01*
X149074285Y-96020000D01*
X149121904Y-96067619D01*
X149169523Y-96162857D01*
X149169523Y-96210476D01*
X149121904Y-96305714D01*
X149074285Y-96353333D01*
X148979047Y-96400952D01*
X148788571Y-96400952D01*
X148693333Y-96448571D01*
X148645714Y-96496190D01*
X148598095Y-96591428D01*
X148598095Y-96781904D01*
X148645714Y-96877142D01*
X148693333Y-96924761D01*
X148788571Y-96972380D01*
X148979047Y-96972380D01*
X149074285Y-96924761D01*
X149121904Y-96877142D01*
X149169523Y-96781904D01*
X149169523Y-96591428D01*
X149121904Y-96496190D01*
X149074285Y-96448571D01*
X148979047Y-96400952D01*
X149502857Y-95972380D02*
X150121904Y-95972380D01*
X149788571Y-96353333D01*
X149931428Y-96353333D01*
X150026666Y-96400952D01*
X150074285Y-96448571D01*
X150121904Y-96543809D01*
X150121904Y-96781904D01*
X150074285Y-96877142D01*
X150026666Y-96924761D01*
X149931428Y-96972380D01*
X149645714Y-96972380D01*
X149550476Y-96924761D01*
X149502857Y-96877142D01*
X151026666Y-95972380D02*
X150550476Y-95972380D01*
X150502857Y-96448571D01*
X150550476Y-96400952D01*
X150645714Y-96353333D01*
X150883809Y-96353333D01*
X150979047Y-96400952D01*
X151026666Y-96448571D01*
X151074285Y-96543809D01*
X151074285Y-96781904D01*
X151026666Y-96877142D01*
X150979047Y-96924761D01*
X150883809Y-96972380D01*
X150645714Y-96972380D01*
X150550476Y-96924761D01*
X150502857Y-96877142D01*
X151455238Y-96686666D02*
X151931428Y-96686666D01*
X151360000Y-96972380D02*
X151693333Y-95972380D01*
X152026666Y-96972380D01*
X152360000Y-96972380D02*
X152360000Y-95972380D01*
X152931428Y-96972380D01*
X152931428Y-95972380D01*
X146050000Y-93178380D02*
X146050000Y-93416476D01*
X145811904Y-93321238D02*
X146050000Y-93416476D01*
X146288095Y-93321238D01*
X145907142Y-93606952D02*
X146050000Y-93416476D01*
X146192857Y-93606952D01*
X146050000Y-93178380D02*
X146050000Y-93416476D01*
X145811904Y-93321238D02*
X146050000Y-93416476D01*
X146288095Y-93321238D01*
X145907142Y-93606952D02*
X146050000Y-93416476D01*
X146192857Y-93606952D01*
%TO.C,regolator1*%
X126642380Y-112364157D02*
X125975714Y-112364157D01*
X126166190Y-112364157D02*
X126070952Y-112316538D01*
X126023333Y-112268919D01*
X125975714Y-112173680D01*
X125975714Y-112078442D01*
X126594761Y-111364157D02*
X126642380Y-111459395D01*
X126642380Y-111649871D01*
X126594761Y-111745109D01*
X126499523Y-111792728D01*
X126118571Y-111792728D01*
X126023333Y-111745109D01*
X125975714Y-111649871D01*
X125975714Y-111459395D01*
X126023333Y-111364157D01*
X126118571Y-111316538D01*
X126213809Y-111316538D01*
X126309047Y-111792728D01*
X125975714Y-110459395D02*
X126785238Y-110459395D01*
X126880476Y-110507014D01*
X126928095Y-110554633D01*
X126975714Y-110649871D01*
X126975714Y-110792728D01*
X126928095Y-110887966D01*
X126594761Y-110459395D02*
X126642380Y-110554633D01*
X126642380Y-110745109D01*
X126594761Y-110840347D01*
X126547142Y-110887966D01*
X126451904Y-110935585D01*
X126166190Y-110935585D01*
X126070952Y-110887966D01*
X126023333Y-110840347D01*
X125975714Y-110745109D01*
X125975714Y-110554633D01*
X126023333Y-110459395D01*
X126642380Y-109840347D02*
X126594761Y-109935585D01*
X126547142Y-109983204D01*
X126451904Y-110030823D01*
X126166190Y-110030823D01*
X126070952Y-109983204D01*
X126023333Y-109935585D01*
X125975714Y-109840347D01*
X125975714Y-109697490D01*
X126023333Y-109602252D01*
X126070952Y-109554633D01*
X126166190Y-109507014D01*
X126451904Y-109507014D01*
X126547142Y-109554633D01*
X126594761Y-109602252D01*
X126642380Y-109697490D01*
X126642380Y-109840347D01*
X126642380Y-108935585D02*
X126594761Y-109030823D01*
X126499523Y-109078442D01*
X125642380Y-109078442D01*
X126642380Y-108126061D02*
X126118571Y-108126061D01*
X126023333Y-108173680D01*
X125975714Y-108268919D01*
X125975714Y-108459395D01*
X126023333Y-108554633D01*
X126594761Y-108126061D02*
X126642380Y-108221300D01*
X126642380Y-108459395D01*
X126594761Y-108554633D01*
X126499523Y-108602252D01*
X126404285Y-108602252D01*
X126309047Y-108554633D01*
X126261428Y-108459395D01*
X126261428Y-108221300D01*
X126213809Y-108126061D01*
X125975714Y-107792728D02*
X125975714Y-107411776D01*
X125642380Y-107649871D02*
X126499523Y-107649871D01*
X126594761Y-107602252D01*
X126642380Y-107507014D01*
X126642380Y-107411776D01*
X126642380Y-106935585D02*
X126594761Y-107030823D01*
X126547142Y-107078442D01*
X126451904Y-107126061D01*
X126166190Y-107126061D01*
X126070952Y-107078442D01*
X126023333Y-107030823D01*
X125975714Y-106935585D01*
X125975714Y-106792728D01*
X126023333Y-106697490D01*
X126070952Y-106649871D01*
X126166190Y-106602252D01*
X126451904Y-106602252D01*
X126547142Y-106649871D01*
X126594761Y-106697490D01*
X126642380Y-106792728D01*
X126642380Y-106935585D01*
X126642380Y-106173680D02*
X125975714Y-106173680D01*
X126166190Y-106173680D02*
X126070952Y-106126061D01*
X126023333Y-106078442D01*
X125975714Y-105983204D01*
X125975714Y-105887966D01*
X126642380Y-105030823D02*
X126642380Y-105602252D01*
X126642380Y-105316538D02*
X125642380Y-105316538D01*
X125785238Y-105411776D01*
X125880476Y-105507014D01*
X125928095Y-105602252D01*
%TO.C,Rref1*%
X130889523Y-106492380D02*
X130556190Y-106016190D01*
X130318095Y-106492380D02*
X130318095Y-105492380D01*
X130699047Y-105492380D01*
X130794285Y-105540000D01*
X130841904Y-105587619D01*
X130889523Y-105682857D01*
X130889523Y-105825714D01*
X130841904Y-105920952D01*
X130794285Y-105968571D01*
X130699047Y-106016190D01*
X130318095Y-106016190D01*
X131318095Y-106492380D02*
X131318095Y-105825714D01*
X131318095Y-106016190D02*
X131365714Y-105920952D01*
X131413333Y-105873333D01*
X131508571Y-105825714D01*
X131603809Y-105825714D01*
X132318095Y-106444761D02*
X132222857Y-106492380D01*
X132032380Y-106492380D01*
X131937142Y-106444761D01*
X131889523Y-106349523D01*
X131889523Y-105968571D01*
X131937142Y-105873333D01*
X132032380Y-105825714D01*
X132222857Y-105825714D01*
X132318095Y-105873333D01*
X132365714Y-105968571D01*
X132365714Y-106063809D01*
X131889523Y-106159047D01*
X132651428Y-105825714D02*
X133032380Y-105825714D01*
X132794285Y-106492380D02*
X132794285Y-105635238D01*
X132841904Y-105540000D01*
X132937142Y-105492380D01*
X133032380Y-105492380D01*
X133889523Y-106492380D02*
X133318095Y-106492380D01*
X133603809Y-106492380D02*
X133603809Y-105492380D01*
X133508571Y-105635238D01*
X133413333Y-105730476D01*
X133318095Y-105778095D01*
%TO.C,Rhall1*%
X135564761Y-78552380D02*
X135231428Y-78076190D01*
X134993333Y-78552380D02*
X134993333Y-77552380D01*
X135374285Y-77552380D01*
X135469523Y-77600000D01*
X135517142Y-77647619D01*
X135564761Y-77742857D01*
X135564761Y-77885714D01*
X135517142Y-77980952D01*
X135469523Y-78028571D01*
X135374285Y-78076190D01*
X134993333Y-78076190D01*
X135993333Y-78552380D02*
X135993333Y-77552380D01*
X136421904Y-78552380D02*
X136421904Y-78028571D01*
X136374285Y-77933333D01*
X136279047Y-77885714D01*
X136136190Y-77885714D01*
X136040952Y-77933333D01*
X135993333Y-77980952D01*
X137326666Y-78552380D02*
X137326666Y-78028571D01*
X137279047Y-77933333D01*
X137183809Y-77885714D01*
X136993333Y-77885714D01*
X136898095Y-77933333D01*
X137326666Y-78504761D02*
X137231428Y-78552380D01*
X136993333Y-78552380D01*
X136898095Y-78504761D01*
X136850476Y-78409523D01*
X136850476Y-78314285D01*
X136898095Y-78219047D01*
X136993333Y-78171428D01*
X137231428Y-78171428D01*
X137326666Y-78123809D01*
X137945714Y-78552380D02*
X137850476Y-78504761D01*
X137802857Y-78409523D01*
X137802857Y-77552380D01*
X138469523Y-78552380D02*
X138374285Y-78504761D01*
X138326666Y-78409523D01*
X138326666Y-77552380D01*
X139374285Y-78552380D02*
X138802857Y-78552380D01*
X139088571Y-78552380D02*
X139088571Y-77552380D01*
X138993333Y-77695238D01*
X138898095Y-77790476D01*
X138802857Y-77838095D01*
%TO.C,flipflop1*%
X149328571Y-109005714D02*
X149709523Y-109005714D01*
X149471428Y-109672380D02*
X149471428Y-108815238D01*
X149519047Y-108720000D01*
X149614285Y-108672380D01*
X149709523Y-108672380D01*
X150185714Y-109672380D02*
X150090476Y-109624761D01*
X150042857Y-109529523D01*
X150042857Y-108672380D01*
X150566666Y-109672380D02*
X150566666Y-109005714D01*
X150566666Y-108672380D02*
X150519047Y-108720000D01*
X150566666Y-108767619D01*
X150614285Y-108720000D01*
X150566666Y-108672380D01*
X150566666Y-108767619D01*
X151042857Y-109005714D02*
X151042857Y-110005714D01*
X151042857Y-109053333D02*
X151138095Y-109005714D01*
X151328571Y-109005714D01*
X151423809Y-109053333D01*
X151471428Y-109100952D01*
X151519047Y-109196190D01*
X151519047Y-109481904D01*
X151471428Y-109577142D01*
X151423809Y-109624761D01*
X151328571Y-109672380D01*
X151138095Y-109672380D01*
X151042857Y-109624761D01*
X151804761Y-109005714D02*
X152185714Y-109005714D01*
X151947619Y-109672380D02*
X151947619Y-108815238D01*
X151995238Y-108720000D01*
X152090476Y-108672380D01*
X152185714Y-108672380D01*
X152661904Y-109672380D02*
X152566666Y-109624761D01*
X152519047Y-109529523D01*
X152519047Y-108672380D01*
X153185714Y-109672380D02*
X153090476Y-109624761D01*
X153042857Y-109577142D01*
X152995238Y-109481904D01*
X152995238Y-109196190D01*
X153042857Y-109100952D01*
X153090476Y-109053333D01*
X153185714Y-109005714D01*
X153328571Y-109005714D01*
X153423809Y-109053333D01*
X153471428Y-109100952D01*
X153519047Y-109196190D01*
X153519047Y-109481904D01*
X153471428Y-109577142D01*
X153423809Y-109624761D01*
X153328571Y-109672380D01*
X153185714Y-109672380D01*
X153947619Y-109005714D02*
X153947619Y-110005714D01*
X153947619Y-109053333D02*
X154042857Y-109005714D01*
X154233333Y-109005714D01*
X154328571Y-109053333D01*
X154376190Y-109100952D01*
X154423809Y-109196190D01*
X154423809Y-109481904D01*
X154376190Y-109577142D01*
X154328571Y-109624761D01*
X154233333Y-109672380D01*
X154042857Y-109672380D01*
X153947619Y-109624761D01*
X155376190Y-109672380D02*
X154804761Y-109672380D01*
X155090476Y-109672380D02*
X155090476Y-108672380D01*
X154995238Y-108815238D01*
X154900000Y-108910476D01*
X154804761Y-108958095D01*
X144161904Y-108672380D02*
X144828571Y-108672380D01*
X144400000Y-109672380D01*
X145638095Y-109005714D02*
X145638095Y-109672380D01*
X145400000Y-108624761D02*
X145161904Y-109339047D01*
X145780952Y-109339047D01*
X146161904Y-109672380D02*
X146161904Y-108672380D01*
X146161904Y-109148571D02*
X146733333Y-109148571D01*
X146733333Y-109672380D02*
X146733333Y-108672380D01*
X147780952Y-109577142D02*
X147733333Y-109624761D01*
X147590476Y-109672380D01*
X147495238Y-109672380D01*
X147352380Y-109624761D01*
X147257142Y-109529523D01*
X147209523Y-109434285D01*
X147161904Y-109243809D01*
X147161904Y-109100952D01*
X147209523Y-108910476D01*
X147257142Y-108815238D01*
X147352380Y-108720000D01*
X147495238Y-108672380D01*
X147590476Y-108672380D01*
X147733333Y-108720000D01*
X147780952Y-108767619D01*
X148114285Y-108672380D02*
X148780952Y-108672380D01*
X148352380Y-109672380D01*
X149590476Y-109005714D02*
X149590476Y-109672380D01*
X149352380Y-108624761D02*
X149114285Y-109339047D01*
X149733333Y-109339047D01*
X150114285Y-109672380D02*
X150114285Y-108672380D01*
X150495238Y-108672380D01*
X150590476Y-108720000D01*
X150638095Y-108767619D01*
X150685714Y-108862857D01*
X150685714Y-109005714D01*
X150638095Y-109100952D01*
X150590476Y-109148571D01*
X150495238Y-109196190D01*
X150114285Y-109196190D01*
X151019047Y-108672380D02*
X151257142Y-109672380D01*
X151447619Y-108958095D01*
X151638095Y-109672380D01*
X151876190Y-108672380D01*
X152257142Y-109291428D02*
X153019047Y-109291428D01*
X154161904Y-109767619D02*
X154066666Y-109720000D01*
X153971428Y-109624761D01*
X153828571Y-109481904D01*
X153733333Y-109434285D01*
X153638095Y-109434285D01*
X153685714Y-109672380D02*
X153590476Y-109624761D01*
X153495238Y-109529523D01*
X153447619Y-109339047D01*
X153447619Y-109005714D01*
X153495238Y-108815238D01*
X153590476Y-108720000D01*
X153685714Y-108672380D01*
X153876190Y-108672380D01*
X153971428Y-108720000D01*
X154066666Y-108815238D01*
X154114285Y-109005714D01*
X154114285Y-109339047D01*
X154066666Y-109529523D01*
X153971428Y-109624761D01*
X153876190Y-109672380D01*
X153685714Y-109672380D01*
X155066666Y-109672380D02*
X154495238Y-109672380D01*
X154780952Y-109672380D02*
X154780952Y-108672380D01*
X154685714Y-108815238D01*
X154590476Y-108910476D01*
X154495238Y-108958095D01*
X155685714Y-108672380D02*
X155780952Y-108672380D01*
X155876190Y-108720000D01*
X155923809Y-108767619D01*
X155971428Y-108862857D01*
X156019047Y-109053333D01*
X156019047Y-109291428D01*
X155971428Y-109481904D01*
X155923809Y-109577142D01*
X155876190Y-109624761D01*
X155780952Y-109672380D01*
X155685714Y-109672380D01*
X155590476Y-109624761D01*
X155542857Y-109577142D01*
X155495238Y-109481904D01*
X155447619Y-109291428D01*
X155447619Y-109053333D01*
X155495238Y-108862857D01*
X155542857Y-108767619D01*
X155590476Y-108720000D01*
X155685714Y-108672380D01*
X156638095Y-108672380D02*
X156733333Y-108672380D01*
X156828571Y-108720000D01*
X156876190Y-108767619D01*
X156923809Y-108862857D01*
X156971428Y-109053333D01*
X156971428Y-109291428D01*
X156923809Y-109481904D01*
X156876190Y-109577142D01*
X156828571Y-109624761D01*
X156733333Y-109672380D01*
X156638095Y-109672380D01*
X156542857Y-109624761D01*
X156495238Y-109577142D01*
X156447619Y-109481904D01*
X156400000Y-109291428D01*
X156400000Y-109053333D01*
X156447619Y-108862857D01*
X156495238Y-108767619D01*
X156542857Y-108720000D01*
X156638095Y-108672380D01*
X157161904Y-109767619D02*
X157923809Y-109767619D01*
X158685714Y-109672380D02*
X158114285Y-109672380D01*
X158400000Y-109672380D02*
X158400000Y-108672380D01*
X158304761Y-108815238D01*
X158209523Y-108910476D01*
X158114285Y-108958095D01*
X159638095Y-109672380D02*
X159066666Y-109672380D01*
X159352380Y-109672380D02*
X159352380Y-108672380D01*
X159257142Y-108815238D01*
X159161904Y-108910476D01*
X159066666Y-108958095D01*
X160209523Y-109100952D02*
X160114285Y-109053333D01*
X160066666Y-109005714D01*
X160019047Y-108910476D01*
X160019047Y-108862857D01*
X160066666Y-108767619D01*
X160114285Y-108720000D01*
X160209523Y-108672380D01*
X160400000Y-108672380D01*
X160495238Y-108720000D01*
X160542857Y-108767619D01*
X160590476Y-108862857D01*
X160590476Y-108910476D01*
X160542857Y-109005714D01*
X160495238Y-109053333D01*
X160400000Y-109100952D01*
X160209523Y-109100952D01*
X160114285Y-109148571D01*
X160066666Y-109196190D01*
X160019047Y-109291428D01*
X160019047Y-109481904D01*
X160066666Y-109577142D01*
X160114285Y-109624761D01*
X160209523Y-109672380D01*
X160400000Y-109672380D01*
X160495238Y-109624761D01*
X160542857Y-109577142D01*
X160590476Y-109481904D01*
X160590476Y-109291428D01*
X160542857Y-109196190D01*
X160495238Y-109148571D01*
X160400000Y-109100952D01*
X149193250Y-105223780D02*
X149193250Y-105461876D01*
X148955154Y-105366638D02*
X149193250Y-105461876D01*
X149431345Y-105366638D01*
X149050392Y-105652352D02*
X149193250Y-105461876D01*
X149336107Y-105652352D01*
X149193250Y-105223780D02*
X149193250Y-105461876D01*
X148955154Y-105366638D02*
X149193250Y-105461876D01*
X149431345Y-105366638D01*
X149050392Y-105652352D02*
X149193250Y-105461876D01*
X149336107Y-105652352D01*
%TO.C,Rload1*%
X145506785Y-78552380D02*
X145173452Y-78076190D01*
X144935357Y-78552380D02*
X144935357Y-77552380D01*
X145316309Y-77552380D01*
X145411547Y-77600000D01*
X145459166Y-77647619D01*
X145506785Y-77742857D01*
X145506785Y-77885714D01*
X145459166Y-77980952D01*
X145411547Y-78028571D01*
X145316309Y-78076190D01*
X144935357Y-78076190D01*
X146078214Y-78552380D02*
X145982976Y-78504761D01*
X145935357Y-78409523D01*
X145935357Y-77552380D01*
X146602023Y-78552380D02*
X146506785Y-78504761D01*
X146459166Y-78457142D01*
X146411547Y-78361904D01*
X146411547Y-78076190D01*
X146459166Y-77980952D01*
X146506785Y-77933333D01*
X146602023Y-77885714D01*
X146744880Y-77885714D01*
X146840119Y-77933333D01*
X146887738Y-77980952D01*
X146935357Y-78076190D01*
X146935357Y-78361904D01*
X146887738Y-78457142D01*
X146840119Y-78504761D01*
X146744880Y-78552380D01*
X146602023Y-78552380D01*
X147792500Y-78552380D02*
X147792500Y-78028571D01*
X147744880Y-77933333D01*
X147649642Y-77885714D01*
X147459166Y-77885714D01*
X147363928Y-77933333D01*
X147792500Y-78504761D02*
X147697261Y-78552380D01*
X147459166Y-78552380D01*
X147363928Y-78504761D01*
X147316309Y-78409523D01*
X147316309Y-78314285D01*
X147363928Y-78219047D01*
X147459166Y-78171428D01*
X147697261Y-78171428D01*
X147792500Y-78123809D01*
X148697261Y-78552380D02*
X148697261Y-77552380D01*
X148697261Y-78504761D02*
X148602023Y-78552380D01*
X148411547Y-78552380D01*
X148316309Y-78504761D01*
X148268690Y-78457142D01*
X148221071Y-78361904D01*
X148221071Y-78076190D01*
X148268690Y-77980952D01*
X148316309Y-77933333D01*
X148411547Y-77885714D01*
X148602023Y-77885714D01*
X148697261Y-77933333D01*
X149697261Y-78552380D02*
X149125833Y-78552380D01*
X149411547Y-78552380D02*
X149411547Y-77552380D01*
X149316309Y-77695238D01*
X149221071Y-77790476D01*
X149125833Y-77838095D01*
%TO.C,SW1*%
X114134761Y-110553333D02*
X114182380Y-110410476D01*
X114182380Y-110172380D01*
X114134761Y-110077142D01*
X114087142Y-110029523D01*
X113991904Y-109981904D01*
X113896666Y-109981904D01*
X113801428Y-110029523D01*
X113753809Y-110077142D01*
X113706190Y-110172380D01*
X113658571Y-110362857D01*
X113610952Y-110458095D01*
X113563333Y-110505714D01*
X113468095Y-110553333D01*
X113372857Y-110553333D01*
X113277619Y-110505714D01*
X113230000Y-110458095D01*
X113182380Y-110362857D01*
X113182380Y-110124761D01*
X113230000Y-109981904D01*
X113182380Y-109648571D02*
X114182380Y-109410476D01*
X113468095Y-109220000D01*
X114182380Y-109029523D01*
X113182380Y-108791428D01*
X114182380Y-107886666D02*
X114182380Y-108458095D01*
X114182380Y-108172380D02*
X113182380Y-108172380D01*
X113325238Y-108267619D01*
X113420476Y-108362857D01*
X113468095Y-108458095D01*
%TO.C,Comparator1*%
X133160000Y-99586642D02*
X133112380Y-99634261D01*
X132969523Y-99681880D01*
X132874285Y-99681880D01*
X132731428Y-99634261D01*
X132636190Y-99539023D01*
X132588571Y-99443785D01*
X132540952Y-99253309D01*
X132540952Y-99110452D01*
X132588571Y-98919976D01*
X132636190Y-98824738D01*
X132731428Y-98729500D01*
X132874285Y-98681880D01*
X132969523Y-98681880D01*
X133112380Y-98729500D01*
X133160000Y-98777119D01*
X133731428Y-99681880D02*
X133636190Y-99634261D01*
X133588571Y-99586642D01*
X133540952Y-99491404D01*
X133540952Y-99205690D01*
X133588571Y-99110452D01*
X133636190Y-99062833D01*
X133731428Y-99015214D01*
X133874285Y-99015214D01*
X133969523Y-99062833D01*
X134017142Y-99110452D01*
X134064761Y-99205690D01*
X134064761Y-99491404D01*
X134017142Y-99586642D01*
X133969523Y-99634261D01*
X133874285Y-99681880D01*
X133731428Y-99681880D01*
X134493333Y-99681880D02*
X134493333Y-99015214D01*
X134493333Y-99110452D02*
X134540952Y-99062833D01*
X134636190Y-99015214D01*
X134779047Y-99015214D01*
X134874285Y-99062833D01*
X134921904Y-99158071D01*
X134921904Y-99681880D01*
X134921904Y-99158071D02*
X134969523Y-99062833D01*
X135064761Y-99015214D01*
X135207619Y-99015214D01*
X135302857Y-99062833D01*
X135350476Y-99158071D01*
X135350476Y-99681880D01*
X135826666Y-99015214D02*
X135826666Y-100015214D01*
X135826666Y-99062833D02*
X135921904Y-99015214D01*
X136112380Y-99015214D01*
X136207619Y-99062833D01*
X136255238Y-99110452D01*
X136302857Y-99205690D01*
X136302857Y-99491404D01*
X136255238Y-99586642D01*
X136207619Y-99634261D01*
X136112380Y-99681880D01*
X135921904Y-99681880D01*
X135826666Y-99634261D01*
X137160000Y-99681880D02*
X137160000Y-99158071D01*
X137112380Y-99062833D01*
X137017142Y-99015214D01*
X136826666Y-99015214D01*
X136731428Y-99062833D01*
X137160000Y-99634261D02*
X137064761Y-99681880D01*
X136826666Y-99681880D01*
X136731428Y-99634261D01*
X136683809Y-99539023D01*
X136683809Y-99443785D01*
X136731428Y-99348547D01*
X136826666Y-99300928D01*
X137064761Y-99300928D01*
X137160000Y-99253309D01*
X137636190Y-99681880D02*
X137636190Y-99015214D01*
X137636190Y-99205690D02*
X137683809Y-99110452D01*
X137731428Y-99062833D01*
X137826666Y-99015214D01*
X137921904Y-99015214D01*
X138683809Y-99681880D02*
X138683809Y-99158071D01*
X138636190Y-99062833D01*
X138540952Y-99015214D01*
X138350476Y-99015214D01*
X138255238Y-99062833D01*
X138683809Y-99634261D02*
X138588571Y-99681880D01*
X138350476Y-99681880D01*
X138255238Y-99634261D01*
X138207619Y-99539023D01*
X138207619Y-99443785D01*
X138255238Y-99348547D01*
X138350476Y-99300928D01*
X138588571Y-99300928D01*
X138683809Y-99253309D01*
X139017142Y-99015214D02*
X139398095Y-99015214D01*
X139160000Y-98681880D02*
X139160000Y-99539023D01*
X139207619Y-99634261D01*
X139302857Y-99681880D01*
X139398095Y-99681880D01*
X139874285Y-99681880D02*
X139779047Y-99634261D01*
X139731428Y-99586642D01*
X139683809Y-99491404D01*
X139683809Y-99205690D01*
X139731428Y-99110452D01*
X139779047Y-99062833D01*
X139874285Y-99015214D01*
X140017142Y-99015214D01*
X140112380Y-99062833D01*
X140160000Y-99110452D01*
X140207619Y-99205690D01*
X140207619Y-99491404D01*
X140160000Y-99586642D01*
X140112380Y-99634261D01*
X140017142Y-99681880D01*
X139874285Y-99681880D01*
X140636190Y-99681880D02*
X140636190Y-99015214D01*
X140636190Y-99205690D02*
X140683809Y-99110452D01*
X140731428Y-99062833D01*
X140826666Y-99015214D01*
X140921904Y-99015214D01*
X141779047Y-99681880D02*
X141207619Y-99681880D01*
X141493333Y-99681880D02*
X141493333Y-98681880D01*
X141398095Y-98824738D01*
X141302857Y-98919976D01*
X141207619Y-98967595D01*
X134945714Y-98411880D02*
X134469523Y-98411880D01*
X134469523Y-97411880D01*
X135279047Y-98411880D02*
X135279047Y-97411880D01*
X135612380Y-98126166D01*
X135945714Y-97411880D01*
X135945714Y-98411880D01*
X136326666Y-97411880D02*
X136945714Y-97411880D01*
X136612380Y-97792833D01*
X136755238Y-97792833D01*
X136850476Y-97840452D01*
X136898095Y-97888071D01*
X136945714Y-97983309D01*
X136945714Y-98221404D01*
X136898095Y-98316642D01*
X136850476Y-98364261D01*
X136755238Y-98411880D01*
X136469523Y-98411880D01*
X136374285Y-98364261D01*
X136326666Y-98316642D01*
X137421904Y-98411880D02*
X137612380Y-98411880D01*
X137707619Y-98364261D01*
X137755238Y-98316642D01*
X137850476Y-98173785D01*
X137898095Y-97983309D01*
X137898095Y-97602357D01*
X137850476Y-97507119D01*
X137802857Y-97459500D01*
X137707619Y-97411880D01*
X137517142Y-97411880D01*
X137421904Y-97459500D01*
X137374285Y-97507119D01*
X137326666Y-97602357D01*
X137326666Y-97840452D01*
X137374285Y-97935690D01*
X137421904Y-97983309D01*
X137517142Y-98030928D01*
X137707619Y-98030928D01*
X137802857Y-97983309D01*
X137850476Y-97935690D01*
X137898095Y-97840452D01*
X138231428Y-97411880D02*
X138850476Y-97411880D01*
X138517142Y-97792833D01*
X138660000Y-97792833D01*
X138755238Y-97840452D01*
X138802857Y-97888071D01*
X138850476Y-97983309D01*
X138850476Y-98221404D01*
X138802857Y-98316642D01*
X138755238Y-98364261D01*
X138660000Y-98411880D01*
X138374285Y-98411880D01*
X138279047Y-98364261D01*
X138231428Y-98316642D01*
X139279047Y-98411880D02*
X139279047Y-97411880D01*
X139850476Y-98411880D01*
X139850476Y-97411880D01*
X133350000Y-93347880D02*
X133350000Y-93585976D01*
X133111904Y-93490738D02*
X133350000Y-93585976D01*
X133588095Y-93490738D01*
X133207142Y-93776452D02*
X133350000Y-93585976D01*
X133492857Y-93776452D01*
X133350000Y-93347880D02*
X133350000Y-93585976D01*
X133111904Y-93490738D02*
X133350000Y-93585976D01*
X133588095Y-93490738D01*
X133207142Y-93776452D02*
X133350000Y-93585976D01*
X133492857Y-93776452D01*
%TO.C,Rrelay2*%
X124972500Y-86172380D02*
X124639166Y-85696190D01*
X124401071Y-86172380D02*
X124401071Y-85172380D01*
X124782023Y-85172380D01*
X124877261Y-85220000D01*
X124924880Y-85267619D01*
X124972500Y-85362857D01*
X124972500Y-85505714D01*
X124924880Y-85600952D01*
X124877261Y-85648571D01*
X124782023Y-85696190D01*
X124401071Y-85696190D01*
X125401071Y-86172380D02*
X125401071Y-85505714D01*
X125401071Y-85696190D02*
X125448690Y-85600952D01*
X125496309Y-85553333D01*
X125591547Y-85505714D01*
X125686785Y-85505714D01*
X126401071Y-86124761D02*
X126305833Y-86172380D01*
X126115357Y-86172380D01*
X126020119Y-86124761D01*
X125972500Y-86029523D01*
X125972500Y-85648571D01*
X126020119Y-85553333D01*
X126115357Y-85505714D01*
X126305833Y-85505714D01*
X126401071Y-85553333D01*
X126448690Y-85648571D01*
X126448690Y-85743809D01*
X125972500Y-85839047D01*
X127020119Y-86172380D02*
X126924880Y-86124761D01*
X126877261Y-86029523D01*
X126877261Y-85172380D01*
X127829642Y-86172380D02*
X127829642Y-85648571D01*
X127782023Y-85553333D01*
X127686785Y-85505714D01*
X127496309Y-85505714D01*
X127401071Y-85553333D01*
X127829642Y-86124761D02*
X127734404Y-86172380D01*
X127496309Y-86172380D01*
X127401071Y-86124761D01*
X127353452Y-86029523D01*
X127353452Y-85934285D01*
X127401071Y-85839047D01*
X127496309Y-85791428D01*
X127734404Y-85791428D01*
X127829642Y-85743809D01*
X128210595Y-85505714D02*
X128448690Y-86172380D01*
X128686785Y-85505714D02*
X128448690Y-86172380D01*
X128353452Y-86410476D01*
X128305833Y-86458095D01*
X128210595Y-86505714D01*
X129020119Y-85267619D02*
X129067738Y-85220000D01*
X129162976Y-85172380D01*
X129401071Y-85172380D01*
X129496309Y-85220000D01*
X129543928Y-85267619D01*
X129591547Y-85362857D01*
X129591547Y-85458095D01*
X129543928Y-85600952D01*
X128972500Y-86172380D01*
X129591547Y-86172380D01*
%TO.C,Rrelay1*%
X125000000Y-96332380D02*
X124666666Y-95856190D01*
X124428571Y-96332380D02*
X124428571Y-95332380D01*
X124809523Y-95332380D01*
X124904761Y-95380000D01*
X124952380Y-95427619D01*
X125000000Y-95522857D01*
X125000000Y-95665714D01*
X124952380Y-95760952D01*
X124904761Y-95808571D01*
X124809523Y-95856190D01*
X124428571Y-95856190D01*
X125428571Y-96332380D02*
X125428571Y-95665714D01*
X125428571Y-95856190D02*
X125476190Y-95760952D01*
X125523809Y-95713333D01*
X125619047Y-95665714D01*
X125714285Y-95665714D01*
X126428571Y-96284761D02*
X126333333Y-96332380D01*
X126142857Y-96332380D01*
X126047619Y-96284761D01*
X126000000Y-96189523D01*
X126000000Y-95808571D01*
X126047619Y-95713333D01*
X126142857Y-95665714D01*
X126333333Y-95665714D01*
X126428571Y-95713333D01*
X126476190Y-95808571D01*
X126476190Y-95903809D01*
X126000000Y-95999047D01*
X127047619Y-96332380D02*
X126952380Y-96284761D01*
X126904761Y-96189523D01*
X126904761Y-95332380D01*
X127857142Y-96332380D02*
X127857142Y-95808571D01*
X127809523Y-95713333D01*
X127714285Y-95665714D01*
X127523809Y-95665714D01*
X127428571Y-95713333D01*
X127857142Y-96284761D02*
X127761904Y-96332380D01*
X127523809Y-96332380D01*
X127428571Y-96284761D01*
X127380952Y-96189523D01*
X127380952Y-96094285D01*
X127428571Y-95999047D01*
X127523809Y-95951428D01*
X127761904Y-95951428D01*
X127857142Y-95903809D01*
X128238095Y-95665714D02*
X128476190Y-96332380D01*
X128714285Y-95665714D02*
X128476190Y-96332380D01*
X128380952Y-96570476D01*
X128333333Y-96618095D01*
X128238095Y-96665714D01*
X129619047Y-96332380D02*
X129047619Y-96332380D01*
X129333333Y-96332380D02*
X129333333Y-95332380D01*
X129238095Y-95475238D01*
X129142857Y-95570476D01*
X129047619Y-95618095D01*
D11*
%TO.C,Rload2*%
X146550131Y-86690000D02*
X148144869Y-86690000D01*
X146550131Y-91110000D02*
X148144869Y-91110000D01*
%TO.C,Rhall2*%
X136362631Y-86690000D02*
X137957369Y-86690000D01*
X136362631Y-91110000D02*
X137957369Y-91110000D01*
%TO.C,LoadConnect1*%
X153880000Y-86880000D02*
X156000000Y-86880000D01*
X156000000Y-84820000D02*
X156000000Y-86880000D01*
X153880000Y-82760000D02*
X154940000Y-82760000D01*
X153880000Y-83820000D02*
X153880000Y-82760000D01*
X153880000Y-84820000D02*
X156000000Y-84820000D01*
X153880000Y-84820000D02*
X153880000Y-86880000D01*
%TO.C,Q1*%
X124460000Y-95540000D02*
X123810000Y-95540000D01*
X124460000Y-92420000D02*
X122785000Y-92420000D01*
X124460000Y-95540000D02*
X125110000Y-95540000D01*
X124460000Y-92420000D02*
X125110000Y-92420000D01*
%TO.C,SupplyConnect1*%
X110700000Y-108220000D02*
X110700000Y-104160000D01*
X112820000Y-104160000D02*
X110700000Y-104160000D01*
X112820000Y-108220000D02*
X110700000Y-108220000D01*
X112820000Y-109220000D02*
X112820000Y-110280000D01*
X112820000Y-108220000D02*
X112820000Y-104160000D01*
X112820000Y-110280000D02*
X111760000Y-110280000D01*
%TO.C,Rref2*%
X141442631Y-111430000D02*
X143037369Y-111430000D01*
X141442631Y-107010000D02*
X143037369Y-107010000D01*
%TO.C,HallSensor1*%
X129570000Y-81530000D02*
X129570000Y-81030000D01*
X124530000Y-84600000D02*
X124530000Y-83480000D01*
X126400000Y-84600000D02*
X124530000Y-84600000D01*
X129570000Y-84600000D02*
X129570000Y-84030000D01*
X126400000Y-77960000D02*
X124530000Y-77960000D01*
X129570000Y-84600000D02*
X127700000Y-84600000D01*
X124530000Y-79080000D02*
X123800000Y-79080000D01*
X124530000Y-80680000D02*
X124530000Y-80280000D01*
X124530000Y-77960000D02*
X124530000Y-79080000D01*
X129570000Y-77960000D02*
X127700000Y-77960000D01*
X124530000Y-81880000D02*
X124530000Y-82280000D01*
X129570000Y-77960000D02*
X129570000Y-78530000D01*
%TO.C,multiplier1*%
X146177000Y-101417348D02*
X146177000Y-101782652D01*
X146177000Y-96344740D02*
X146177000Y-96702652D01*
X153543000Y-101782652D02*
X153543000Y-101417348D01*
X153543000Y-99242652D02*
X153543000Y-98877348D01*
X153543000Y-93853000D02*
X146177000Y-93853000D01*
X146177000Y-103957348D02*
X146177000Y-104267000D01*
X153543000Y-96702652D02*
X153543000Y-96337348D01*
X146177000Y-104267000D02*
X153543000Y-104267000D01*
X146177000Y-98877348D02*
X146177000Y-99242652D01*
X153543000Y-94162652D02*
X153543000Y-93853000D01*
X146177000Y-93853000D02*
X146177000Y-94155260D01*
X153543000Y-104267000D02*
X153543000Y-103957348D01*
%TO.C,regolator1*%
X125190000Y-110572300D02*
X123680000Y-110572300D01*
X123680000Y-103601300D02*
X123680000Y-113841300D01*
X125190000Y-103601300D02*
X120549000Y-103601300D01*
X125190000Y-103601300D02*
X125190000Y-113841300D01*
X125190000Y-113841300D02*
X120549000Y-113841300D01*
X125190000Y-106871300D02*
X123680000Y-106871300D01*
X120549000Y-103601300D02*
X120549000Y-113841300D01*
%TO.C,Rref1*%
X131282631Y-111430000D02*
X132877369Y-111430000D01*
X131282631Y-107010000D02*
X132877369Y-107010000D01*
%TO.C,Rhall1*%
X136362631Y-83490000D02*
X137957369Y-83490000D01*
X136362631Y-79070000D02*
X137957369Y-79070000D01*
%TO.C,flipflop1*%
X154774900Y-106540300D02*
X150025100Y-106540300D01*
X154774900Y-106759461D02*
X154774900Y-106540300D01*
X154774900Y-111899700D02*
X154774900Y-111680541D01*
X150025100Y-106540300D02*
X150025100Y-106759459D01*
X150025100Y-111680539D02*
X150025100Y-111899700D01*
X150025100Y-111899700D02*
X154774900Y-111899700D01*
D12*
X156565600Y-109679499D02*
X156565600Y-110060499D01*
X156565600Y-110060499D02*
X156311600Y-110060499D01*
X156311600Y-110060499D02*
X156311600Y-109679499D01*
X156311600Y-109679499D02*
X156565600Y-109679499D01*
G36*
X156565600Y-110060499D02*
G01*
X156311600Y-110060499D01*
X156311600Y-109679499D01*
X156565600Y-109679499D01*
X156565600Y-110060499D01*
G37*
X156565600Y-110060499D02*
X156311600Y-110060499D01*
X156311600Y-109679499D01*
X156565600Y-109679499D01*
X156565600Y-110060499D01*
D11*
%TO.C,Rload1*%
X146495131Y-79070000D02*
X148089869Y-79070000D01*
X146495131Y-83490000D02*
X148089869Y-83490000D01*
%TO.C,SW1*%
X114490000Y-112870000D02*
X114490000Y-111487000D01*
X116205000Y-107410000D02*
X116205000Y-111030000D01*
X117475000Y-111030000D02*
X117475000Y-107410000D01*
X114730000Y-112630000D02*
X114730000Y-105810000D01*
X116685000Y-111030000D02*
X116685000Y-109823333D01*
X116445000Y-111030000D02*
X116445000Y-109823333D01*
X117640000Y-112630000D02*
X118950000Y-112630000D01*
X114730000Y-112630000D02*
X116040000Y-112630000D01*
X117165000Y-111030000D02*
X117165000Y-109823333D01*
X114730000Y-105810000D02*
X116040000Y-105810000D01*
X116325000Y-111030000D02*
X116325000Y-109823333D01*
X114490000Y-112870000D02*
X115873000Y-112870000D01*
X117640000Y-105810000D02*
X118950000Y-105810000D01*
X117475000Y-107410000D02*
X116205000Y-107410000D01*
X116805000Y-111030000D02*
X116805000Y-109823333D01*
X116925000Y-111030000D02*
X116925000Y-109823333D01*
X116205000Y-109823333D02*
X117475000Y-109823333D01*
X117405000Y-111030000D02*
X117405000Y-109823333D01*
X116565000Y-111030000D02*
X116565000Y-109823333D01*
X117285000Y-111030000D02*
X117285000Y-109823333D01*
X118950000Y-112630000D02*
X118950000Y-105810000D01*
X116205000Y-111030000D02*
X117475000Y-111030000D01*
X117045000Y-111030000D02*
X117045000Y-109823333D01*
%TO.C,Comparator1*%
X140589000Y-93641500D02*
X133731000Y-93641500D01*
X140589000Y-94393199D02*
X140589000Y-93641500D01*
X133731000Y-96514240D02*
X133731000Y-96933199D01*
X133731000Y-104817500D02*
X140589000Y-104817500D01*
X140589000Y-104817500D02*
X140589000Y-104065801D01*
X133731000Y-93641500D02*
X133731000Y-94324760D01*
X140589000Y-96933199D02*
X140589000Y-96445801D01*
X140589000Y-102013199D02*
X140589000Y-101525801D01*
X133731000Y-101525801D02*
X133731000Y-102013199D01*
X133731000Y-104065801D02*
X133731000Y-104817500D01*
X133731000Y-98985801D02*
X133731000Y-99473199D01*
X140589000Y-99473199D02*
X140589000Y-98985801D01*
%TO.C,Rrelay2*%
X126175131Y-91110000D02*
X127769869Y-91110000D01*
X126175131Y-86690000D02*
X127769869Y-86690000D01*
%TO.C,Rrelay1*%
X126202631Y-101270000D02*
X127797369Y-101270000D01*
X126202631Y-96850000D02*
X127797369Y-96850000D01*
%TD*%
M02*
