%TF.GenerationSoftware,KiCad,Pcbnew,6.0.2+dfsg-1*%
%TF.CreationDate,2023-03-19T16:54:36+01:00*%
%TF.ProjectId,recruitment,72656372-7569-4746-9d65-6e742e6b6963,rev?*%
%TF.SameCoordinates,Original*%
%TF.FileFunction,Copper,L2,Bot*%
%TF.FilePolarity,Positive*%
%FSLAX46Y46*%
G04 Gerber Fmt 4.6, Leading zero omitted, Abs format (unit mm)*
G04 Created by KiCad (PCBNEW 6.0.2+dfsg-1) date 2023-03-19 16:54:36*
%MOMM*%
%LPD*%
G01*
G04 APERTURE LIST*
%TA.AperFunction,ComponentPad*%
%ADD10R,1.350000X1.350000*%
%TD*%
%TA.AperFunction,ComponentPad*%
%ADD11O,1.350000X1.350000*%
%TD*%
%TA.AperFunction,ComponentPad*%
%ADD12R,1.524000X1.524000*%
%TD*%
%TA.AperFunction,ComponentPad*%
%ADD13C,1.524000*%
%TD*%
%TA.AperFunction,ComponentPad*%
%ADD14R,2.000000X1.905000*%
%TD*%
%TA.AperFunction,ComponentPad*%
%ADD15O,2.000000X1.905000*%
%TD*%
%TA.AperFunction,ComponentPad*%
%ADD16R,2.500000X2.500000*%
%TD*%
%TA.AperFunction,ComponentPad*%
%ADD17O,2.500000X2.500000*%
%TD*%
%TA.AperFunction,ViaPad*%
%ADD18C,0.800000*%
%TD*%
%TA.AperFunction,Conductor*%
%ADD19C,0.250000*%
%TD*%
G04 APERTURE END LIST*
D10*
%TO.P,LoadConnect1,1,Pin_1*%
%TO.N,Net-(HallSensor1-Pad5)*%
X154940000Y-83820000D03*
D11*
%TO.P,LoadConnect1,2,Pin_2*%
%TO.N,GND*%
X154940000Y-85820000D03*
%TD*%
D10*
%TO.P,SupplyConnect1,1,Pin_1*%
%TO.N,GND*%
X111760000Y-109220000D03*
D11*
%TO.P,SupplyConnect1,2,Pin_2*%
%TO.N,Net-(SW1-Pad1)*%
X111760000Y-107220000D03*
%TO.P,SupplyConnect1,3,Pin_3*%
%TO.N,Net-(Relay1-Pad3)*%
X111760000Y-105220000D03*
%TD*%
D12*
%TO.P,multiplier1,1,Y1*%
%TO.N,/V_Nload*%
X146050000Y-95250000D03*
D13*
%TO.P,multiplier1,2,Y2*%
%TO.N,GND*%
X146050000Y-97790000D03*
%TO.P,multiplier1,3,VN*%
X146050000Y-100330000D03*
%TO.P,multiplier1,4,Z*%
X146050000Y-102870000D03*
%TO.P,multiplier1,5,W*%
%TO.N,/V_pot*%
X153670000Y-102870000D03*
%TO.P,multiplier1,6,VP*%
%TO.N,/Vcc*%
X153670000Y-100330000D03*
%TO.P,multiplier1,7,X2*%
%TO.N,/V_Nhall*%
X153670000Y-97790000D03*
%TO.P,multiplier1,8,X1*%
%TO.N,GND*%
X153670000Y-95250000D03*
%TD*%
D14*
%TO.P,regolator1,1,VI*%
%TO.N,Net-(SW1-Pad2)*%
X121920000Y-106181300D03*
D15*
%TO.P,regolator1,2,GND*%
%TO.N,GND*%
X121920000Y-108721300D03*
%TO.P,regolator1,3,VO*%
%TO.N,/Vcc*%
X121920000Y-111261300D03*
%TD*%
D12*
%TO.P,Comparator1,1,OUT*%
%TO.N,/V_comp*%
X133350000Y-95419500D03*
D13*
%TO.P,Comparator1,2,IN-*%
%TO.N,/V_ref*%
X133350000Y-97959500D03*
%TO.P,Comparator1,3,IN+*%
%TO.N,/V_pot*%
X133350000Y-100499500D03*
%TO.P,Comparator1,4,V-*%
%TO.N,GND*%
X133350000Y-103039500D03*
%TO.P,Comparator1,5,IN+*%
%TO.N,unconnected-(Comparator1-Pad5)*%
X140970000Y-103039500D03*
%TO.P,Comparator1,6,IN-*%
%TO.N,unconnected-(Comparator1-Pad6)*%
X140970000Y-100499500D03*
%TO.P,Comparator1,7,OUT*%
%TO.N,unconnected-(Comparator1-Pad7)*%
X140970000Y-97959500D03*
%TO.P,Comparator1,8,V+*%
%TO.N,/Vcc*%
X140970000Y-95419500D03*
%TD*%
D16*
%TO.P,Relay1,1*%
%TO.N,Net-(Q1-Pad2)*%
X113182500Y-99307500D03*
D17*
%TO.P,Relay1,3*%
%TO.N,Net-(Relay1-Pad3)*%
X113182500Y-78307500D03*
%TO.P,Relay1,5*%
%TO.N,Net-(HallSensor1-Pad6)*%
X120682500Y-81807500D03*
%TO.P,Relay1,6*%
%TO.N,GND*%
X120682500Y-99307500D03*
%TD*%
D18*
%TO.N,/Vcc*%
X126050000Y-79435400D03*
%TO.N,/V_Nhall*%
X144108700Y-91974300D03*
%TD*%
D19*
%TO.N,/Vcc*%
X140970000Y-95419500D02*
X140970000Y-94355400D01*
X153670000Y-100330000D02*
X149700700Y-96360700D01*
X149700700Y-96360700D02*
X141911200Y-96360700D01*
X141911200Y-96360700D02*
X140970000Y-95419500D01*
X140970000Y-94355400D02*
X126050000Y-79435400D01*
%TO.N,GND*%
X146050000Y-97790000D02*
X146050000Y-100330000D01*
X121088700Y-100882800D02*
X123245400Y-103039500D01*
X133350000Y-103039500D02*
X123245400Y-103039500D01*
X123245400Y-107395900D02*
X121920000Y-108721300D01*
X120682500Y-100882800D02*
X121088700Y-100882800D01*
X123245400Y-103039500D02*
X123245400Y-107395900D01*
X120682500Y-99307500D02*
X120682500Y-100882800D01*
X146050000Y-100330000D02*
X146050000Y-102870000D01*
%TO.N,/V_pot*%
X145443400Y-103970200D02*
X143242700Y-101769500D01*
X134620000Y-101769500D02*
X133350000Y-100499500D01*
X152569800Y-103970200D02*
X145443400Y-103970200D01*
X153670000Y-102870000D02*
X152569800Y-103970200D01*
X143242700Y-101769500D02*
X134620000Y-101769500D01*
%TO.N,/V_Nhall*%
X153670000Y-97790000D02*
X147854300Y-91974300D01*
X147854300Y-91974300D02*
X144108700Y-91974300D01*
%TO.N,Net-(Relay1-Pad3)*%
X111607100Y-81458200D02*
X111607100Y-104066800D01*
X111607100Y-104066800D02*
X111760000Y-104219700D01*
X113182500Y-78307500D02*
X113182500Y-79882800D01*
X113182500Y-79882800D02*
X111607100Y-81458200D01*
X111760000Y-105220000D02*
X111760000Y-104219700D01*
%TD*%
M02*
