%TF.GenerationSoftware,KiCad,Pcbnew,6.0.2+dfsg-1*%
%TF.CreationDate,2023-03-19T16:54:36+01:00*%
%TF.ProjectId,recruitment,72656372-7569-4746-9d65-6e742e6b6963,rev?*%
%TF.SameCoordinates,Original*%
%TF.FileFunction,Paste,Top*%
%TF.FilePolarity,Positive*%
%FSLAX46Y46*%
G04 Gerber Fmt 4.6, Leading zero omitted, Abs format (unit mm)*
G04 Created by KiCad (PCBNEW 6.0.2+dfsg-1) date 2023-03-19 16:54:36*
%MOMM*%
%LPD*%
G01*
G04 APERTURE LIST*
G04 Aperture macros list*
%AMRoundRect*
0 Rectangle with rounded corners*
0 $1 Rounding radius*
0 $2 $3 $4 $5 $6 $7 $8 $9 X,Y pos of 4 corners*
0 Add a 4 corners polygon primitive as box body*
4,1,4,$2,$3,$4,$5,$6,$7,$8,$9,$2,$3,0*
0 Add four circle primitives for the rounded corners*
1,1,$1+$1,$2,$3*
1,1,$1+$1,$4,$5*
1,1,$1+$1,$6,$7*
1,1,$1+$1,$8,$9*
0 Add four rect primitives between the rounded corners*
20,1,$1+$1,$2,$3,$4,$5,0*
20,1,$1+$1,$4,$5,$6,$7,0*
20,1,$1+$1,$6,$7,$8,$9,0*
20,1,$1+$1,$8,$9,$2,$3,0*%
G04 Aperture macros list end*
%ADD10RoundRect,0.250001X-1.262499X-1.974999X1.262499X-1.974999X1.262499X1.974999X-1.262499X1.974999X0*%
%ADD11RoundRect,0.150000X-0.587500X-0.150000X0.587500X-0.150000X0.587500X0.150000X-0.587500X0.150000X0*%
%ADD12R,1.600000X0.500000*%
%ADD13R,0.600000X0.900000*%
%ADD14R,1.700000X1.800000*%
%ADD15R,1.409700X0.355600*%
%ADD16R,1.120000X2.160000*%
G04 APERTURE END LIST*
D10*
%TO.C,Rload2*%
X144835000Y-88900000D03*
X149860000Y-88900000D03*
%TD*%
%TO.C,Rhall2*%
X134647500Y-88900000D03*
X139672500Y-88900000D03*
%TD*%
D11*
%TO.C,Q1*%
X123522500Y-93030000D03*
X123522500Y-94930000D03*
X125397500Y-93980000D03*
%TD*%
D10*
%TO.C,Rref2*%
X139727500Y-109220000D03*
X144752500Y-109220000D03*
%TD*%
D12*
%TO.C,HallSensor1*%
X124550000Y-79680000D03*
X124550000Y-81280000D03*
X124550000Y-82880000D03*
D13*
X127050000Y-84080000D03*
D14*
X129400000Y-82780000D03*
X129400000Y-79780000D03*
D13*
X127050000Y-78480000D03*
%TD*%
D10*
%TO.C,Rref1*%
X129567500Y-109220000D03*
X134592500Y-109220000D03*
%TD*%
%TO.C,Rhall1*%
X134647500Y-81280000D03*
X139672500Y-81280000D03*
%TD*%
D15*
%TO.C,flipflop1*%
X149447250Y-107269999D03*
X149447250Y-107920000D03*
X149447250Y-108570001D03*
X149447250Y-109220000D03*
X149447250Y-109869999D03*
X149447250Y-110520000D03*
X149447250Y-111169999D03*
X155352750Y-111170001D03*
X155352750Y-110520000D03*
X155352750Y-109870001D03*
X155352750Y-109220000D03*
X155352750Y-108570001D03*
X155352750Y-107920000D03*
X155352750Y-107270001D03*
%TD*%
D10*
%TO.C,Rload1*%
X144780000Y-81280000D03*
X149805000Y-81280000D03*
%TD*%
D16*
%TO.C,SW1*%
X116840000Y-112585000D03*
X116840000Y-105855000D03*
%TD*%
D10*
%TO.C,Rrelay2*%
X124460000Y-88900000D03*
X129485000Y-88900000D03*
%TD*%
%TO.C,Rrelay1*%
X124487500Y-99060000D03*
X129512500Y-99060000D03*
%TD*%
M02*
